<?xml version="1.0" encoding="UTF-8" standalone="no"?>
<!-- Generator: Adobe Illustrator 24.0.3, SVG Export Plug-In . SVG Version: 6.00 Build 0)  -->

<svg
   version="1.1"
   id="Layer_1"
   x="0px"
   y="0px"
   viewBox="0 0 327.33359 336.98318"
   xml:space="preserve"
   sodipodi:docname="ebpf-simplified-color-horz.svg"
   width="327.33359"
   height="336.98318"
   inkscape:version="1.2.2 (b0a8486541, 2022-12-01)"
   xmlns:inkscape="http://www.inkscape.org/namespaces/inkscape"
   xmlns:sodipodi="http://sodipodi.sourceforge.net/DTD/sodipodi-0.dtd"
   xmlns="http://www.w3.org/2000/svg"
   xmlns:svg="http://www.w3.org/2000/svg"><defs
   id="defs27" /><sodipodi:namedview
   id="namedview25"
   pagecolor="#ffffff"
   bordercolor="#666666"
   borderopacity="1.0"
   inkscape:showpageshadow="2"
   inkscape:pageopacity="0.0"
   inkscape:pagecheckerboard="0"
   inkscape:deskcolor="#d1d1d1"
   showgrid="false"
   inkscape:zoom="1.1066667"
   inkscape:cx="483.88554"
   inkscape:cy="168.07229"
   inkscape:window-width="2560"
   inkscape:window-height="1403"
   inkscape:window-x="0"
   inkscape:window-y="0"
   inkscape:window-maximized="1"
   inkscape:current-layer="Layer_1" />
<style
   type="text/css"
   id="style2">
	.st0{fill:#FFE100;}
	.st1{fill:#D9F1FD;}
	.st2{fill:#00AEEF;}
</style>

<g
   id="g22"
   transform="translate(-116.22454,-131.48682)">
	<path
   class="st0"
   d="m 306.89,419.99 c -28.22,-54.27 -1.41,-99.12 -1.41,-99.12 l -10.73,-15.03 0.01,-0.02 -0.03,-0.01 -0.05,-0.07 -0.03,0.04 -17.45,-6.06 c 0,0 -35.48,38.37 -95.5,26.57 -15.65,40.74 -16.15,64.29 19.62,104.17 v 0.01 c 0.01,0 0.01,0.01 0.02,0.01 0.02,0.02 0.04,0.05 0.06,0.07 l 0.02,-0.03 c 48.34,23.08 70.79,15.97 105.47,-10.53 z"
   id="path12" />
	<path
   id="f_2_"
   class="st1"
   d="m 286.46,254.72 c -11.54,-14.63 -79.68,-34.21 -132.52,-16.44 -69.13,23.25 1.33,101.86 70.47,88.96 44.04,-8.21 81.95,-47.28 62.05,-72.52 z" />
	<path
   class="st2"
   d="m 209.17,271.94 -2.91,-5.14 c -0.36,0.2 -3.32,1.95 -6.98,5.72 -6.73,0.56 -13.61,1.49 -20.55,2.85 l 0.46,-1.17 c -17.78,-7.04 -24.15,-30.62 -24.21,-30.86 l -6.01,1.56 -6.01,1.55 c 0.26,1 5.46,20.52 20.44,32.67 -10.83,3.23 -21.61,7.7 -31.93,13.8 l 6.32,10.7 c 16.54,-9.77 34.61,-14.97 52.12,-17.41 -4.56,9.6 -7.74,23.26 -5.54,42.09 l 12.34,-1.45 c -2.57,-21.9 3.17,-34.99 8.42,-42.12 39.76,-2.23 73.17,7.92 73.68,8.08 l 3.71,-11.85 c -2.13,-0.66 -34.03,-10.39 -73.35,-9.02 z"
   id="path15" />
	<path
   id="f_1_"
   class="st1"
   d="m 346.33,299.54 c 17.29,6.95 55.28,66.81 53.11,122.52 -2.83,72.88 -98.11,27.42 -105.21,-42.55 -4.52,-44.57 22.28,-91.95 52.1,-79.97 z" />
	<path
   class="st2"
   d="m 394.69,434.89 -0.41,-12.41 c -0.23,0 -24.57,0.64 -36.42,-14.54 l -0.99,0.77 c -0.65,-7.04 -1.69,-13.9 -3.05,-20.51 2.59,-4.58 3.43,-7.9 3.52,-8.3 l -5.76,-1.38 c -9.76,-38.09 -28.07,-65.95 -29.32,-67.81 l -10.32,6.91 c 0.3,0.45 19.48,29.6 28.53,68.39 -5.35,7.05 -16.29,16.26 -38.06,19.97 l 2.09,12.24 c 18.71,-3.19 30.93,-10.1 38.85,-17.19 2.59,17.48 2.67,36.28 -2.05,54.93 l 12.04,3.04 c 2.94,-11.62 4.2,-23.22 4.24,-34.53 14.18,9.78 31.8,10.42 36.14,10.42 0.52,0.02 0.86,0.01 0.97,0 z"
   id="path18" />
	<path
   d="m 440.75,206.1 c -3.68,-3.59 -9.58,-3.51 -13.17,0.17 -17.73,18.2 -37.42,24.38 -50.74,26.38 -4.54,-5.61 -9.86,-10.76 -15.88,-15.26 -7.98,-5.97 -16.58,-10.35 -25.33,-13.18 -2.25,-13.15 -2.75,-35.12 10.6,-58.83 2.53,-4.48 0.94,-10.16 -3.55,-12.69 -4.48,-2.53 -10.16,-0.94 -12.69,3.55 -13.87,24.62 -15.31,47.87 -13.62,64.24 -20.79,-1.35 -40.41,6.07 -52.31,21.97 -1.89,2.52 -3.5,5.19 -4.9,7.97 -29.52,-9.16 -71.77,-13.21 -108.2,-0.96 -26.65,8.96 -39.12,27.55 -33.35,49.73 5.23,20.11 25.51,40.04 51.58,50.74 -6.4,13.68 -9.05,28.45 -7.54,42.96 1.87,17.85 9.91,34.35 23.45,48.51 l -7.37,40.74 37,-18.54 c 12.89,6.67 26.16,10.09 39.35,10.09 4.62,0 9.23,-0.42 13.8,-1.26 14.37,-2.63 27.82,-9.37 39.15,-19.38 17.23,21.63 41.42,35.42 61.96,35.42 0.47,0 0.94,-0.01 1.41,-0.02 22.9,-0.71 37.23,-17.91 38.32,-46.01 1.5,-38.51 -14.39,-78.02 -31.55,-103.76 2.24,-2.1 4.33,-4.39 6.2,-6.89 10.09,-13.47 13.18,-30.82 8.73,-48.85 -1.13,-4.57 -2.72,-9.04 -4.73,-13.37 15.64,-3.57 35.49,-11.79 53.52,-30.29 3.62,-3.7 3.54,-9.59 -0.14,-13.18 z M 322.26,314.36 c 4.93,8.6 14.83,27.28 22.43,50.72 l -0.29,-0.05 c -0.05,0.27 -4.92,24.81 -35.36,33.9 -2.98,-7.08 -4.9,-14.08 -5.54,-20.37 -2.72,-26.77 6.97,-52.27 18.76,-64.2 z m -27.56,7.9 c -6.45,13.67 -10.2,30.09 -10.28,46.63 -5.92,0.79 -17.92,0.79 -30.44,-8.59 -12.45,-9.32 -15.76,-20.65 -16.63,-26.63 15.84,-4.74 30.55,-12.95 41.86,-22.98 2.32,2.15 4.74,4.21 7.31,6.14 2.65,1.99 5.39,3.78 8.18,5.43 z m -70.65,-47.51 c 24.63,0.69 45.34,4.93 54.98,7.24 -8.12,14.68 -29.86,31.15 -56.32,36.09 -7.13,1.33 -14.22,1.54 -21.11,0.91 -0.14,-31.88 21.59,-43.46 22.59,-43.97 z M 200.5,240.54 c 38.02,0 72.89,12.65 78.64,19.95 3.14,3.98 4.09,8.5 2.95,13.7 -8.31,-2.08 -26.08,-5.93 -48.23,-7.37 -14.65,-0.95 -32.69,-0.83 -51.35,2.29 -11.11,-4.82 -17.8,-15.63 -21.34,-23.32 12.78,-3.73 26.24,-5.25 39.33,-5.25 z m -64.84,33.95 c -2.97,-11.43 2.96,-20.17 17.61,-26.02 3.07,6.92 8.48,16.33 17.22,23.08 -10.58,2.53 -21.17,6.17 -31.29,11.23 -1.64,-2.81 -2.84,-5.6 -3.54,-8.29 z m 8.33,15.12 c 21.31,-10.41 45.05,-14.26 66.87,-14.87 -7.74,7.37 -17.35,20.95 -17.56,43.06 -20.83,-4.06 -38.98,-15.69 -49.31,-28.19 z m 120.57,144.47 c -17.81,3.25 -36.6,-2.03 -54.35,-15.32 v 0 c -24.95,-18.68 -40.24,-50.66 -23.12,-83.24 2.93,0.65 5.9,1.19 8.9,1.58 1.79,16.01 10.07,39.06 33.16,56.35 17.51,13.11 35.85,17.15 50.63,17.15 4.74,0 9.12,-0.42 12.98,-1.08 1.18,2.67 2.48,5.27 3.87,7.81 -9.19,8.75 -20.26,14.59 -32.07,16.75 z m 88.33,12.54 c -16.75,-6.69 -31.32,-22.99 -40.26,-40.11 20.74,-6.5 30.94,-19.37 35.79,-28.78 5.6,21.28 8.59,45.34 4.47,68.89 z m 16.96,3.18 c -3.03,0.09 -6.04,-0.19 -8.99,-0.78 2.05,-11.24 2.57,-22.52 2.01,-33.49 8.93,6.49 19.49,9.04 27,10.04 -1.49,15.71 -8.21,23.87 -20.02,24.23 z m 20.35,-32.57 c -8.38,-1.22 -20.65,-4.59 -28.4,-13.9 -2.27,-18.78 -7.24,-36.12 -12.27,-49.91 -7.63,-20.89 -16.34,-36.85 -20.67,-44.22 2.69,-1.48 5.35,-2.22 8.02,-2.22 1.98,0 3.96,0.4 5.97,1.21 11.6,4.65 47.28,57.06 47.35,109.04 z"
   id="path20" />
</g>
</svg>
