<svg width="24" height="24" viewBox="0 0 24 24" fill="none" xmlns="http://www.w3.org/2000/svg" class="shrink-0"><rect x="2" y="22" width="20" height="20" rx="2" transform="rotate(-90 2 22)" fill="#FFBF00"></rect><path fill-rule="evenodd" clip-rule="evenodd" d="M9 6a1 1 0 0 0 0 2h6a1 1 0 1 0 0-2H9Zm5.127 6V9H9.87v3l-2.602 3.668a1.426 1.426 0 0 0-.08 1.538c.136.24.338.44.586.58.247.14.53.213.819.214h6.81c.29 0 .573-.074.821-.213.248-.14.45-.34.587-.58a1.425 1.425 0 0 0-.08-1.539L14.128 12Z" fill="#fff"></path></svg>
